<svg width="1920" height="791" viewBox="0 0 1920 791" fill="none" xmlns="http://www.w3.org/2000/svg">
<path fill-rule="evenodd" clip-rule="evenodd" d="M1625 205C1652.61 205 1675 227.386 1675 255C1675 282.614 1652.61 305 1625 305C1597.39 305 1575 282.614 1575 255C1575 227.386 1597.39 205 1625 205Z" fill="#F07167"/>
<path fill-rule="evenodd" clip-rule="evenodd" d="M992 602C1019.61 602 1042 624.386 1042 652C1042 679.614 1019.61 702 992 702C964.386 702 942 679.614 942 652C942 624.386 964.386 602 992 602Z" fill="#F07167"/>
<path fill-rule="evenodd" clip-rule="evenodd" d="M1553.5 542C1600.72 542 1639 580.279 1639 627.5C1639 674.721 1600.72 713 1553.5 713C1506.28 713 1468 674.721 1468 627.5C1468 580.279 1506.28 542 1553.5 542Z" fill="#F07167"/>
<path fill-rule="evenodd" clip-rule="evenodd" d="M129.524 405.576C126.169 427.128 105.977 441.88 84.4246 438.524C62.8719 435.169 48.1203 414.977 51.4758 393.425C54.8312 371.872 75.0229 357.12 96.5756 360.476C118.128 363.831 132.88 384.023 129.524 405.576Z" fill="#F07167"/>
<path fill-rule="evenodd" clip-rule="evenodd" d="M1155.5 22C1206.04 22 1247 62.9659 1247 113.5C1247 164.034 1206.04 205 1155.5 205C1104.97 205 1064 164.034 1064 113.5C1064 62.9659 1104.97 22 1155.5 22Z" fill="#F07167"/>
<path fill-rule="evenodd" clip-rule="evenodd" d="M273 105C300.614 105 323 127.386 323 155C323 182.614 300.614 205 273 205C245.386 205 223 182.614 223 155C223 127.386 245.386 105 273 105Z" fill="#F07167"/>
</svg>
