<svg width="1920" height="995" viewBox="0 0 1920 995" fill="none" xmlns="http://www.w3.org/2000/svg">
<g clip-path="url(#clip0)">
<path d="M1656.49 174.006L1887.49 -14.994L2234.49 118.006L1841.49 411.006L1656.49 174.006Z" fill="#F07167"/>
<path d="M734.993 499.993L874.993 639.993L506.993 997.993L211.993 998.993L734.993 499.993Z" fill="#F07167"/>
<path d="M800.993 474.993C855.669 474.993 899.993 519.317 899.993 573.993C899.993 628.669 855.669 672.993 800.993 672.993C746.317 672.993 701.993 628.669 701.993 573.993C701.993 519.317 746.317 474.993 800.993 474.993Z" fill="#F07167"/>
<path d="M295.993 710.993L429.993 846.993L277.993 999.993H-16.007L295.993 710.993Z" fill="#F07167"/>
<path d="M352.993 691.993C406.013 691.993 448.993 734.973 448.993 787.993C448.993 841.013 406.013 883.993 352.993 883.993C299.974 883.993 256.993 841.013 256.993 787.993C256.993 734.973 299.974 691.993 352.993 691.993Z" fill="#F07167"/>
<path d="M238.493 517.993C252.576 517.993 263.993 529.41 263.993 543.493C263.993 557.576 252.576 568.993 238.493 568.993C224.41 568.993 212.993 557.576 212.993 543.493C212.993 529.41 224.41 517.993 238.493 517.993Z" fill="#F07167"/>
</g>
<defs>
<clipPath id="clip0">
<rect width="1920" height="995" fill="white"/>
</clipPath>
</defs>
</svg>
